<svg width="61" height="60" viewBox="0 0 61 60" fill="none" xmlns="http://www.w3.org/2000/svg">
<rect x="0.47998" width="59.86" height="59.86" rx="10" fill="white"/>
<path d="M29.9824 5.13086C23.5187 5.13086 17.3197 7.69857 12.7491 12.2691C8.17855 16.8397 5.61084 23.0387 5.61084 29.5024C5.61084 35.9662 8.17855 42.1652 12.7491 46.7357C17.3197 51.3063 23.5187 53.874 29.9824 53.874C36.4462 53.874 42.6452 51.3063 47.2157 46.7357C51.7863 42.1652 54.354 35.9662 54.354 29.5024C54.354 23.0387 51.7863 16.8397 47.2157 12.2691C42.6452 7.69857 36.4462 5.13086 29.9824 5.13086Z" fill="white"/>
<path d="M43.2764 12.7847C40.2551 20.5393 32.3998 19.5322 26.8608 19.7337L25.4509 24.9705C32.3998 19.4315 41.4636 24.9705 40.5573 33.4301C40.3022 35.8944 39.296 38.2209 37.6747 40.0943C36.0535 41.9677 33.8957 43.2976 31.4935 43.9038C26.7601 45.0116 21.624 43.2996 19.3077 38.5662L18.502 36.5521L23.4367 35.2428C23.4367 35.545 23.6382 35.7464 23.7389 36.0485C27.0623 41.3861 33.8098 38.667 34.5147 33.128C35.3204 27.589 27.4651 24.5677 23.8396 31.1138L19.4084 29.301L21.0197 22.6542L22.1275 18.223L22.4297 17.2159C25.2495 9.86418 30.7885 9.15922 35.7232 9.15922H36.3275C31.2291 7.64733 25.75 8.09255 20.9625 10.4077C16.1751 12.7229 12.4239 16.7414 10.4433 21.6766C8.46269 26.6119 8.39514 32.1086 10.2539 37.0911C12.1127 42.0735 15.7639 46.1829 20.493 48.6151C25.2221 51.0472 30.6886 51.6269 35.8227 50.2407C40.9567 48.8546 45.3886 45.6024 48.251 41.1206C51.1135 36.6388 52.2003 31.2502 51.2988 26.0093C50.3974 20.7684 47.5725 16.0525 43.3771 12.7847H43.2764Z" fill="#E52322"/>
<path d="M41.3626 11.3748C41.0587 12.5125 40.4896 13.562 39.7019 14.4373C38.9141 15.3125 37.9302 15.9887 36.8307 16.4103C34.5144 17.4174 31.6945 17.4174 28.9754 17.4174H24.7456C27.1626 11.8784 31.2917 11.3748 35.7229 11.3748C37.601 11.2749 39.4821 11.2413 41.3626 11.2741V11.3748Z" fill="#00923A"/>
</svg>
