<svg width="245" height="104" viewBox="0 0 245 104" fill="none" xmlns="http://www.w3.org/2000/svg">
<path d="M17.5067 10.7125C18.7242 10.4981 19.9761 10.7752 20.987 11.483C21.9979 12.1907 22.6849 13.2711 22.8969 14.4865L29.5594 52.6739C29.7008 53.4841 30.1588 54.2044 30.8327 54.6762C31.5066 55.148 32.3412 55.3328 33.1529 55.1899C33.9646 55.0469 34.6869 54.5879 35.1609 53.9139C35.6349 53.2399 35.8217 52.4061 35.6804 51.5959L32.9802 36.1193L33.5023 36.0021C35.4299 35.5871 37.3928 35.2666 38.5258 35.2875C39.3748 35.308 40.4277 35.5571 41.462 35.9165C41.9781 36.0901 42.5368 36.653 42.7149 37.6734L44.8618 49.9789C45.0032 50.7891 45.4612 51.5094 46.1351 51.9812C46.809 52.453 47.6436 52.6378 48.4553 52.4949C49.267 52.3519 49.9892 51.893 50.4632 51.219C50.9372 50.5449 51.1241 49.7111 50.9827 48.9009L49.3144 39.3387C49.5265 39.278 49.7393 39.2195 49.9526 39.1634C51.8612 38.6761 53.5166 38.4727 54.3289 38.6446C55.1002 38.7984 56.3858 39.5859 57.762 40.7479C58.3602 41.2472 58.8827 41.7471 59.2623 42.1148L60.6972 50.3389C60.8385 51.1491 61.2965 51.8694 61.9704 52.3412C62.6443 52.813 63.4789 52.9978 64.2906 52.8549C65.1023 52.7119 65.8246 52.2529 66.2986 51.5789C66.7726 50.9049 66.9595 50.0711 66.8181 49.2609L65.7521 43.1509L67.8455 42.7822C68.7009 42.6315 69.5781 42.6615 70.4204 42.8703C71.2627 43.079 72.0515 43.4618 72.7358 43.994C73.4202 44.5262 73.9849 45.196 74.3935 45.9602C74.8022 46.7243 75.0457 47.5659 75.1084 48.4306L76.3438 65.3113C76.5016 67.4809 76.2004 69.6603 75.4599 71.708L69.5244 88.1324C69.3384 88.6471 69.0196 89.1039 68.6002 89.4564C68.1809 89.809 67.6759 90.0448 67.1365 90.14L28.0542 97.023C27.5502 97.1115 27.0323 97.0744 26.5467 96.9149C26.061 96.7555 25.6225 96.4786 25.2702 96.1089L14.207 84.5172C13.18 83.4424 12.4265 82.1368 12.0096 80.71L6.58798 62.1104C6.36998 61.3651 6.44014 60.5646 6.78459 59.8672C7.12905 59.1699 7.72271 58.6264 8.4482 58.3442L14.3743 56.041L15.3231 61.4788C15.4644 62.2891 15.9224 63.0093 16.5963 63.4812C17.2702 63.953 18.1048 64.1378 18.9165 63.9948C19.7282 63.8519 20.4505 63.3929 20.9245 62.7189C21.3985 62.0449 21.5854 61.2111 21.444 60.4008L13.7155 16.1035C13.5034 14.8881 13.7838 13.6374 14.4947 12.6264C15.2057 11.6153 16.2892 10.9269 17.5067 10.7125ZM31.9131 30.0032L29.0179 13.4085C28.5231 10.5727 26.92 8.05174 24.5614 6.4003C22.2027 4.74886 19.2816 4.10217 16.4407 4.6025C13.5998 5.10283 11.0718 6.70919 9.4128 9.0682C7.75383 11.4272 7.09978 14.3456 7.59454 17.1815L13.287 49.8088L6.19769 52.5688C4.02489 53.4159 2.24701 55.0445 1.21469 57.1336C0.182374 59.2226 -0.0294406 61.6204 0.621022 63.854L6.04375 82.4597C6.73858 84.8378 7.9944 87.0137 9.706 88.8052L20.7692 100.397C21.8266 101.505 23.1421 102.334 24.5989 102.811C26.0557 103.289 27.6088 103.399 29.1203 103.133L68.2025 96.25C69.8208 95.9644 71.3356 95.257 72.5937 94.1993C73.8517 93.1417 74.8081 91.7714 75.3661 90.2273L81.3027 73.809C82.3406 70.939 82.7621 67.8843 82.5397 64.8436L81.3043 47.9629C81.1781 46.2341 80.6905 44.5518 79.8729 43.0242C79.0553 41.4967 77.9258 40.1579 76.5574 39.0942C75.1889 38.0304 73.6118 37.2653 71.9277 36.8482C70.2435 36.431 68.4898 36.3711 66.7795 36.6722L63.2232 37.2985C62.7508 36.8486 62.2646 36.4134 61.7652 35.9935C60.352 34.8002 58.0381 33.0728 55.6156 32.5674C53.2319 32.0677 50.2965 32.6728 48.4124 33.1558L47.6172 33.3714C46.675 31.8211 45.2212 30.6476 43.5051 30.0525C41.9555 29.4898 40.3289 29.1648 38.6808 29.0884C36.7172 29.0437 34.0956 29.5306 32.2048 29.9392L31.9131 30.0032Z" fill="white"/>
</svg>
